<?xml version="1.0" standalone="no"?>
<!DOCTYPE svg PUBLIC "-//W3C//DTD SVG 20010904//EN"
 "http://www.w3.org/TR/2001/REC-SVG-20010904/DTD/svg10.dtd">
<svg version="1.0" xmlns="http://www.w3.org/2000/svg"
 width="1920.000000pt" height="1920.000000pt" viewBox="0 0 1920.000000 1920.000000"
 preserveAspectRatio="xMidYMid meet">

  <g transform="translate(0.000000,1920.000000) scale(0.100000,-0.100000)"
  fill="#000000" stroke="none">
  <path d="M7842 19183 c-19 -16 -20 -23 -12 -67 19 -94 -33 -138 -240 -206 -69
  -22 -188 -59 -265 -81 -183 -52 -374 -115 -427 -139 l-43 -20 35 3 c19 2 130
  29 245 60 297 81 432 108 567 114 l117 6 30 -32 c20 -21 34 -50 41 -86 6 -30
  15 -57 19 -60 20 -12 109 26 140 60 28 31 32 41 29 82 l-3 47 45 -2 c82 -5
  176 15 267 56 210 95 344 113 953 134 366 12 733 3 1065 -27 171 -15 191 -20
  329 -84 116 -54 206 -81 267 -81 31 0 51 -5 54 -12 2 -7 9 -32 15 -56 15 -60
  61 -109 111 -117 52 -9 69 6 69 60 0 34 6 48 31 73 33 32 93 52 156 52 73 0
  337 -50 584 -111 227 -55 322 -71 244 -39 -60 24 -563 172 -685 201 -222 54
  -256 75 -254 157 1 26 5 59 9 75 7 25 4 28 -31 43 -72 30 -138 4 -174 -70
  l-21 -45 -50 19 c-80 32 -144 35 -260 12 -157 -31 -219 -33 -400 -18 -91 9
  -302 20 -468 26 -321 12 -521 6 -971 -28 -283 -21 -473 -21 -556 2 -79 21
  -234 21 -289 0 -76 -29 -72 -30 -89 30 -13 43 -23 59 -46 71 -40 21 -113 19
  -138 -2z m3376 -186 c8 -6 12 -26 10 -50 -3 -35 -7 -42 -36 -54 -30 -12 -34
  -12 -57 11 -33 33 -32 69 2 95 26 21 53 21 81 -2z m-3230 -13 c24 -17 28 -44
  11 -77 -24 -44 -58 -49 -94 -12 -62 61 11 139 83 89z"/>
  <path d="M11807 19062 c-10 -11 -22 -36 -28 -56 -9 -31 -7 -41 11 -65 47 -68
  197 -101 375 -83 55 5 103 8 108 5 4 -2 -2 -17 -13 -33 -16 -22 -18 -34 -10
  -54 11 -31 50 -35 107 -11 81 34 152 8 173 -63 31 -103 -80 -199 -168 -146
  -15 8 -40 33 -55 55 -30 41 -70 59 -96 42 -12 -8 -15 -24 -14 -57 2 -25 -1
  -46 -5 -46 -5 0 -62 38 -127 85 -122 88 -153 102 -245 112 -47 4 -59 2 -83
  -17 -75 -60 -67 -145 15 -165 26 -7 29 -4 49 41 11 27 26 52 32 56 39 25 125
  -6 249 -90 140 -94 183 -114 259 -120 88 -6 146 15 192 69 42 48 57 97 57 181
  0 85 -29 126 -115 162 -94 40 -141 46 -302 40 -224 -10 -268 9 -268 114 l0 57
  -41 3 c-29 2 -45 -2 -57 -16z"/>
  <path d="M7273 19059 c-31 -9 -32 -11 -27 -52 4 -34 1 -47 -18 -70 -33 -40
  -85 -49 -298 -51 -177 -2 -187 -3 -235 -28 -27 -14 -58 -34 -67 -45 -47 -51
  -63 -166 -33 -236 22 -53 74 -108 123 -129 38 -17 49 -18 100 -7 68 14 112 35
  211 102 187 126 274 139 302 47 10 -33 16 -40 38 -40 38 0 69 26 76 63 14 74
  -45 132 -125 123 -60 -8 -207 -81 -299 -150 -41 -31 -78 -56 -81 -56 -4 0 -7
  17 -6 37 1 32 -3 39 -26 47 -24 8 -31 5 -72 -37 -54 -53 -91 -65 -136 -42 -71
  37 -93 134 -41 185 38 38 72 45 138 30 39 -10 60 -11 71 -3 17 11 21 54 8 84
  -6 14 13 15 166 15 156 -1 179 1 233 21 77 29 105 60 105 118 0 41 -18 75 -40
  75 -5 0 -14 2 -22 4 -7 2 -28 0 -45 -5z"/>
  <path d="M13249 18717 c-51 -44 -54 -55 -25 -82 16 -15 26 -35 26 -53 0 -36
  -28 -132 -39 -132 -4 0 -20 13 -35 29 -32 33 -45 82 -46 162 0 62 -18 89 -61
  89 -37 0 -50 -14 -56 -57 -7 -55 23 -109 108 -194 64 -65 81 -89 61 -89 -18 0
  -299 133 -328 155 -40 31 -52 74 -29 109 23 34 12 46 -40 46 -110 0 -179 -70
  -178 -181 1 -63 20 -107 59 -138 40 -31 64 -28 64 9 0 17 9 39 21 51 19 19 29
  21 85 15 102 -10 341 -86 330 -105 -3 -5 -52 -10 -108 -13 -128 -6 -189 -29
  -214 -81 -10 -22 -14 -45 -10 -61 5 -22 12 -26 41 -26 29 0 46 10 95 55 66 61
  94 75 146 75 40 0 43 -13 15 -69 -27 -51 -45 -64 -85 -59 -28 3 -36 0 -40 -17
  -29 -107 68 -182 162 -125 46 28 51 49 19 74 -30 24 -33 55 -13 121 27 91 91
  16 105 -125 9 -86 21 -110 56 -110 61 0 78 94 32 173 -15 25 -54 69 -87 98
  -55 48 -75 79 -50 79 21 0 278 -132 313 -161 42 -35 48 -72 20 -119 -24 -42
  -6 -60 61 -60 62 0 104 23 146 81 25 35 30 51 30 101 0 66 -16 106 -56 137
  -35 28 -54 27 -54 -2 0 -34 -30 -57 -76 -57 -71 0 -384 97 -384 119 0 4 46 7
  103 7 112 -1 177 16 215 57 37 40 33 83 -10 102 -38 16 -50 11 -108 -45 -47
  -45 -97 -70 -141 -70 -33 0 -35 7 -14 58 22 51 54 82 85 82 34 0 50 17 50 55
  0 52 -40 92 -110 108 -18 5 -33 0 -51 -16z"/>
  <path d="M12361 18701 c-26 -37 -26 -52 0 -86 18 -22 27 -26 53 -21 39 8 56
  30 56 72 0 66 -71 89 -109 35z"/>
  <path d="M6050 18707 c-27 -14 -43 -64 -35 -113 9 -53 -37 -154 -70 -154 -29
  0 -60 139 -35 155 26 16 29 43 8 70 -29 38 -62 48 -109 34 -54 -17 -79 -43
  -79 -84 0 -54 8 -65 50 -65 23 0 43 -7 52 -17 18 -21 68 -107 68 -116 0 -4
  -21 -7 -48 -7 -52 0 -72 11 -144 77 -51 46 -71 52 -106 27 -33 -23 -29 -66 8
  -98 43 -35 94 -47 210 -47 69 -1 100 -4 100 -12 0 -14 -296 -127 -350 -134
  -44 -6 -85 23 -93 66 -6 27 -9 30 -29 22 -39 -14 -81 -84 -85 -143 -4 -46 0
  -59 25 -99 52 -81 166 -120 220 -76 10 8 9 14 -7 31 -45 50 -28 93 65 157 70
  48 258 141 262 129 2 -5 -22 -38 -53 -73 -72 -78 -107 -138 -108 -182 -2 -72
  54 -119 94 -78 16 15 21 37 24 106 4 90 13 116 48 155 27 29 30 28 50 -13 26
  -54 23 -111 -8 -131 -23 -15 -24 -17 -9 -46 19 -36 75 -62 115 -53 36 8 76 56
  85 101 8 44 -6 59 -51 56 -30 -3 -37 2 -64 38 -61 85 -52 110 31 86 35 -10 73
  -32 113 -66 66 -55 96 -62 120 -26 18 28 9 60 -26 92 -47 43 -71 49 -184 50
  -134 1 -130 1 -115 18 14 18 267 103 330 112 56 7 88 -14 99 -66 9 -47 38 -51
  85 -10 82 73 68 211 -28 285 -43 33 -112 44 -140 22 -18 -13 -18 -15 -2 -39
  20 -30 11 -61 -25 -94 -64 -57 -340 -194 -348 -172 -2 7 5 17 15 23 38 21 117
  112 141 163 28 60 27 117 -4 139 -21 16 -31 16 -63 0z"/>
  <path d="M6705 18695 c-41 -40 -30 -92 25 -115 28 -12 33 -11 55 10 33 31 33
  73 0 105 -13 14 -31 25 -40 25 -9 0 -27 -11 -40 -25z"/>
  <path d="M13973 18208 c-115 -25 -201 -182 -162 -299 29 -85 109 -130 299
  -169 216 -44 283 -90 246 -168 -25 -51 -21 -69 19 -82 44 -15 67 -7 101 32 29
  35 29 79 -1 124 -33 51 -167 102 -340 129 -55 9 -101 18 -103 20 -3 2 8 14 23
  27 21 19 25 29 20 51 -7 26 -10 27 -67 27 -101 0 -148 36 -148 113 0 38 30 91
  61 107 29 16 105 7 128 -14 10 -10 29 -37 42 -61 35 -66 77 -70 101 -9 l14 35
  92 -99 c137 -149 262 -221 332 -192 36 15 70 55 70 82 0 24 -52 78 -75 78 -9
  0 -30 -13 -45 -30 -22 -24 -36 -30 -69 -30 -50 0 -111 47 -251 191 -121 125
  -190 158 -287 137z"/>
  <path d="M5119 18200 c-15 -4 -58 -24 -96 -44 -54 -29 -92 -60 -178 -152 -60
  -64 -123 -125 -139 -135 -56 -34 -114 -22 -141 31 -19 37 -35 38 -69 4 -31
  -32 -33 -67 -6 -111 59 -97 228 -19 391 182 29 36 56 65 60 65 4 0 10 -16 13
  -35 5 -26 13 -36 31 -41 39 -10 52 1 84 65 36 71 62 91 116 91 70 0 115 -51
  115 -131 0 -34 -6 -47 -35 -76 l-36 -36 -74 7 c-67 6 -76 5 -95 -14 -11 -11
  -20 -25 -20 -30 0 -13 41 -55 61 -62 33 -12 -13 -27 -143 -47 -151 -22 -211
  -46 -264 -103 -18 -18 -35 -47 -39 -64 -15 -72 52 -142 111 -115 34 15 39 36
  19 81 -26 57 -15 85 47 116 28 14 94 35 146 45 269 54 340 96 382 223 46 142
  -106 323 -241 286z"/>
  <path d="M13931 18054 c-24 -31 -26 -43 -9 -79 10 -23 17 -26 52 -23 33 2 43
  9 59 35 15 27 16 36 6 55 -16 30 -28 38 -61 38 -17 0 -34 -9 -47 -26z"/>
  <path d="M5132 18044 c-19 -13 -22 -21 -16 -52 8 -47 18 -59 56 -67 23 -5 35
  -2 48 11 29 30 31 56 10 92 -22 36 -60 43 -98 16z"/>
  <path d="M14090 17936 c8 -8 80 -51 160 -97 321 -182 524 -319 593 -399 49
  -57 50 -103 6 -172 -27 -42 -29 -50 -18 -65 22 -25 74 -43 128 -43 45 0 52 4
  79 36 l30 36 48 -49 c68 -68 127 -106 209 -136 177 -64 236 -101 435 -272 318
  -274 655 -603 905 -885 264 -297 294 -340 350 -505 34 -98 77 -178 123 -227
  l35 -37 -31 -59 c-18 -33 -32 -75 -32 -94 0 -34 42 -108 62 -108 5 0 26 14 45
  30 60 53 159 33 235 -47 56 -60 203 -278 328 -485 123 -204 145 -236 156 -226
  6 6 -291 554 -368 678 -99 160 -109 206 -58 264 17 18 41 37 55 40 51 13 14
  105 -53 133 -36 15 -81 11 -133 -11 -13 -6 -20 3 -34 36 -28 71 -81 132 -157
  183 -121 80 -196 145 -276 240 -235 277 -520 583 -597 641 -27 21 -84 72 -125
  113 -103 104 -269 255 -425 386 -159 134 -232 209 -293 300 -82 123 -202 235
  -253 235 -30 0 -31 18 -3 75 24 49 25 58 14 85 -16 38 -77 90 -105 90 -12 -1
  -33 -19 -53 -45 l-33 -45 -63 0 c-58 0 -75 6 -192 64 -71 35 -192 98 -268 141
  -170 94 -410 215 -428 215 -9 0 -8 -4 2 -14z m989 -522 c27 -35 27 -69 -1 -88
  -50 -35 -108 -11 -108 45 0 63 71 91 109 43z m2300 -2286 c14 -25 14 -29 -5
  -55 -54 -72 -150 -8 -98 65 23 33 83 27 103 -10z"/>
  <path d="M5035 17923 c-146 -74 -506 -272 -615 -338 -142 -86 -185 -105 -231
  -105 -34 0 -94 50 -103 85 -13 51 -105 14 -133 -53 -15 -36 -11 -81 11 -133 6
  -13 -3 -20 -36 -34 -71 -28 -132 -81 -183 -157 -88 -133 -147 -197 -308 -335
  -254 -217 -387 -344 -628 -599 -246 -260 -348 -373 -483 -534 -100 -119 -192
  -204 -286 -265 -101 -65 -210 -189 -210 -239 0 -27 -20 -28 -75 0 -49 23 -58
  25 -85 14 -39 -16 -90 -75 -90 -103 0 -14 13 -31 36 -46 45 -31 56 -53 56
  -114 0 -40 -11 -73 -66 -183 -36 -74 -99 -194 -139 -267 -89 -158 -217 -412
  -217 -429 0 -25 29 19 125 187 182 318 297 488 379 561 61 56 104 59 178 14
  41 -25 53 -29 65 -19 27 23 44 70 45 122 0 48 -3 54 -38 85 l-38 33 37 30 c59
  48 122 146 157 244 18 50 50 122 71 161 91 166 606 728 990 1078 340 311 428
  375 580 426 94 32 199 87 241 128 l37 35 59 -31 c33 -18 75 -32 94 -32 34 0
  108 42 108 62 0 5 -13 26 -30 45 -53 60 -33 159 47 235 60 56 278 203 485 328
  120 72 220 136 224 141 10 17 0 18 -31 2z m-912 -544 c12 -7 25 -17 29 -23 13
  -19 9 -59 -9 -78 -36 -40 -103 -9 -103 47 0 24 7 39 22 49 27 19 33 19 61 5z
  m-2249 -2301 c35 -50 11 -108 -45 -108 -63 0 -91 71 -43 109 35 27 69 27 88
  -1z"/>
  <path d="M17793 14710 c-97 -59 -19 -228 182 -391 36 -29 65 -56 65 -60 0 -4
  -16 -10 -35 -13 -26 -5 -36 -13 -41 -31 -10 -39 1 -52 65 -84 71 -36 91 -62
  91 -116 0 -70 -51 -115 -131 -115 -34 0 -47 6 -76 35 l-36 36 7 74 c6 67 5 76
  -14 95 -28 28 -50 22 -75 -17 -26 -42 -38 -37 -47 18 -4 24 -14 88 -23 143
  -17 108 -38 157 -91 215 -41 46 -70 55 -125 41 -51 -14 -80 -64 -61 -105 16
  -35 37 -40 82 -20 57 26 85 15 116 -47 14 -28 35 -94 45 -146 45 -221 76 -295
  144 -342 115 -78 238 -58 330 54 30 37 36 52 37 98 1 45 -5 66 -40 133 -35 68
  -60 97 -158 190 -129 120 -154 154 -154 204 0 26 9 41 42 71 38 35 40 40 27
  57 -38 48 -74 55 -126 23z"/>
  <path d="M1289 14671 c-37 -37 -37 -56 1 -91 24 -22 30 -36 30 -69 0 -50 -47
  -111 -191 -251 -108 -105 -141 -161 -141 -240 0 -86 60 -167 149 -200 64 -24
  111 -25 161 -5 85 36 123 105 163 296 45 221 88 281 172 243 46 -21 67 -12 81
  34 10 36 -7 71 -49 98 -33 22 -90 11 -125 -24 -42 -43 -88 -168 -111 -304 -12
  -68 -23 -125 -24 -127 -2 -2 -14 9 -27 24 -19 21 -29 25 -51 20 -26 -7 -27
  -10 -27 -67 0 -101 -36 -148 -113 -148 -38 0 -91 30 -107 61 -16 29 -7 105 14
  128 10 10 37 29 61 42 64 34 68 78 9 101 l-35 14 99 92 c149 137 221 262 192
  332 -15 36 -55 70 -82 70 -11 0 -33 -13 -49 -29z"/>
  <path d="M17975 14081 c-48 -10 -71 -74 -37 -103 30 -27 55 -29 90 -8 36 22
  43 60 16 98 -16 23 -20 24 -69 13z"/>
  <path d="M1155 14038 c-44 -25 -48 -76 -9 -107 31 -24 43 -26 79 -9 20 9 25
  18 25 50 0 33 -5 41 -32 58 -38 23 -37 23 -63 8z"/>
  <path d="M18069 13812 c-81 -52 -120 -166 -76 -220 8 -10 14 -9 31 7 50 45 93
  28 157 -65 44 -64 140 -255 133 -265 -3 -5 -36 18 -72 52 -82 75 -141 111
  -187 112 -72 2 -119 -54 -78 -94 15 -16 37 -21 106 -24 90 -4 116 -13 155 -48
  29 -27 28 -30 -13 -50 -54 -26 -111 -23 -131 8 -15 23 -17 24 -46 9 -36 -19
  -62 -75 -53 -115 8 -36 56 -76 101 -85 44 -8 57 4 58 53 1 34 6 41 50 70 26
  18 54 33 61 33 44 0 13 -105 -55 -185 -55 -65 -62 -97 -26 -120 27 -18 50 -12
  89 24 42 39 61 116 53 217 -7 82 0 107 23 80 17 -21 100 -272 107 -325 7 -57
  -14 -89 -66 -100 -47 -9 -51 -38 -10 -85 64 -72 198 -70 266 6 50 54 68 125
  41 162 -12 17 -14 17 -44 -1 -31 -17 -33 -17 -60 3 -15 11 -43 43 -61 70 -33
  49 -152 281 -152 296 0 19 31 6 42 -17 16 -35 121 -121 173 -140 87 -34 155 5
  124 71 -16 31 -63 47 -115 39 -53 -9 -154 37 -154 70 0 29 139 60 155 35 16
  -26 43 -29 70 -8 38 29 48 62 34 109 -17 54 -43 79 -84 79 -54 0 -65 -8 -65
  -50 0 -23 -7 -43 -17 -52 -21 -18 -107 -68 -116 -68 -4 0 -7 21 -7 48 0 52 11
  72 77 144 46 51 52 71 27 106 -23 33 -66 29 -98 -8 -35 -43 -47 -94 -47 -210
  -1 -69 -4 -100 -12 -100 -14 0 -127 296 -134 350 -6 44 23 85 66 93 27 6 30 9
  22 29 -14 39 -84 81 -143 85 -46 4 -59 0 -99 -25z"/>
  <path d="M924 13781 c-59 -36 -83 -91 -41 -91 34 0 57 -30 57 -76 0 -70 -97
  -384 -119 -384 -4 0 -7 48 -7 108 0 125 -21 188 -74 221 -40 24 -69 16 -85
  -23 -16 -36 -11 -48 45 -106 45 -47 70 -97 70 -141 0 -33 -7 -35 -58 -14 -51
  22 -82 54 -82 85 0 35 -17 50 -58 50 -42 0 -86 -41 -101 -95 -11 -42 -4 -59
  43 -96 l27 -21 24 26 c15 16 35 26 53 26 36 0 132 -28 132 -39 0 -4 -13 -20
  -29 -35 -33 -32 -82 -45 -162 -46 -62 0 -89 -18 -89 -61 0 -37 14 -50 57 -56
  55 -7 106 21 193 107 66 65 90 82 90 62 0 -18 -133 -299 -155 -328 -31 -40
  -74 -52 -109 -29 -34 23 -46 12 -46 -40 0 -109 70 -178 180 -178 62 0 108 19
  139 59 31 40 28 64 -9 64 -17 0 -39 9 -51 21 -19 19 -21 29 -15 85 10 102 86
  341 105 330 5 -3 10 -52 13 -108 6 -128 29 -189 81 -214 22 -10 45 -14 61 -10
  22 5 26 12 26 41 0 29 -10 46 -55 95 -61 66 -75 94 -75 146 0 40 13 43 69 15
  51 -27 64 -45 59 -85 -3 -28 0 -36 17 -40 107 -29 182 68 125 162 -28 46 -49
  51 -74 19 -24 -30 -55 -33 -121 -13 -91 27 -16 91 125 105 86 9 110 21 110 56
  0 35 -36 60 -85 59 -58 -1 -122 -40 -186 -114 -48 -55 -79 -75 -79 -50 0 20
  139 287 165 318 31 37 70 42 115 15 24 -14 31 -14 44 -4 20 17 21 102 2 139
  -16 31 -61 74 -93 91 -36 18 -134 14 -169 -8z"/>
  <path d="M18565 12599 c-56 -28 -102 -75 -121 -125 -27 -72 1 -158 98 -301
  127 -186 141 -276 48 -304 -33 -10 -40 -16 -40 -38 0 -38 26 -69 63 -76 74
  -14 132 45 123 125 -8 60 -81 207 -150 299 -31 41 -56 78 -56 81 0 4 17 7 37
  6 32 -1 38 3 47 26 9 25 6 32 -36 72 -26 25 -49 57 -53 74 -14 64 53 132 129
  132 30 0 45 -7 73 -35 38 -38 39 -50 17 -163 -11 -55 25 -75 87 -48 14 6 16
  -10 15 -156 -1 -135 2 -174 18 -226 27 -87 61 -122 118 -122 23 0 48 4 55 8
  22 14 32 58 22 96 -10 35 -10 35 -52 30 -37 -5 -46 -3 -73 23 -40 36 -46 77
  -48 303 -2 167 -4 177 -28 225 -14 28 -34 58 -45 67 -55 50 -176 63 -248 27z"/>
  <path d="M399 12565 c-80 -60 -111 -178 -103 -390 10 -226 -9 -270 -114 -270
  l-57 0 -3 -38 c-4 -48 16 -73 70 -88 33 -8 43 -7 67 11 68 47 101 197 83 375
  -5 55 -8 103 -5 108 2 4 17 -2 33 -13 22 -16 34 -18 54 -10 31 11 35 50 11
  107 -25 58 -20 110 14 143 16 16 40 32 54 36 43 10 108 -16 134 -55 42 -62 25
  -122 -48 -174 -41 -30 -59 -70 -42 -96 8 -12 24 -15 57 -14 25 2 46 -1 46 -5
  0 -5 -38 -62 -85 -127 -87 -121 -102 -154 -111 -240 -6 -60 8 -90 56 -123 53
  -35 110 -13 125 50 7 26 3 29 -41 49 -27 11 -52 26 -56 32 -25 39 6 125 90
  249 105 156 123 199 123 286 0 93 -53 173 -138 209 -18 7 -65 13 -106 13 -63
  0 -78 -4 -108 -25z"/>
  <path d="M18609 12510 c-9 -5 -22 -23 -29 -40 -12 -28 -11 -33 10 -55 31 -33
  73 -33 105 0 14 13 25 31 25 40 0 9 -11 27 -25 40 -25 26 -58 31 -86 15z"/>
  <path d="M480 12451 c-19 -36 -12 -68 19 -90 37 -26 52 -26 86 0 22 18 26 27
  21 53 -8 40 -30 56 -78 56 -27 0 -40 -5 -48 -19z"/>
  <path d="M18673 12310 c2 -19 29 -129 60 -245 81 -297 108 -432 114 -567 l6
  -117 -32 -30 c-21 -20 -50 -34 -86 -41 -30 -6 -57 -15 -60 -19 -11 -19 26
  -108 58 -139 31 -30 39 -33 83 -30 l48 3 -2 -45 c-5 -82 15 -176 56 -267 59
  -131 90 -243 101 -373 49 -539 51 -1133 6 -1645 -15 -169 -20 -192 -80 -320
  -56 -121 -76 -183 -83 -259 l-7 -70 -47 -12 c-92 -23 -138 -70 -138 -138 0
  -33 19 -46 66 -46 73 0 124 -77 124 -187 0 -73 -51 -338 -110 -581 -61 -247
  -68 -284 -51 -267 16 17 175 545 216 720 49 204 72 241 153 239 26 -1 59 -5
  75 -9 25 -7 28 -4 43 31 30 72 4 138 -70 174 l-45 21 19 50 c32 80 35 144 12
  260 -31 157 -33 219 -17 404 26 307 35 604 25 865 -16 405 -30 669 -41 775
  -13 115 -5 276 16 355 19 73 19 233 -1 285 -29 76 -30 72 30 89 43 13 59 23
  71 46 21 40 19 113 -2 138 -16 19 -23 20 -67 12 -42 -9 -53 -7 -82 11 -19 11
  -45 39 -58 62 -27 45 -85 221 -165 492 -57 195 -114 364 -130 391 -10 16 -11
  14 -8 -16z m309 -1007 c22 -20 23 -61 2 -91 -17 -24 -44 -28 -77 -11 -44 24
  -49 58 -12 94 28 29 61 32 87 8z m13 -3233 c21 -23 23 -63 5 -85 -9 -11 -26
  -15 -53 -13 -35 3 -42 7 -54 36 -12 30 -12 34 11 57 30 30 66 32 91 5z"/>
  <path d="M490 12265 c-24 -60 -172 -563 -201 -685 -54 -222 -75 -256 -157
  -254 -26 1 -59 5 -75 9 -25 7 -28 4 -43 -31 -30 -72 -4 -138 70 -174 l45 -21
  -20 -51 c-29 -74 -34 -150 -14 -238 31 -146 36 -234 20 -425 -28 -338 -35
  -597 -25 -865 16 -395 30 -665 41 -775 13 -116 5 -276 -16 -355 -19 -73 -19
  -233 1 -285 29 -76 30 -72 -30 -89 -43 -13 -59 -23 -71 -46 -21 -40 -19 -113
  3 -138 15 -19 22 -20 66 -12 42 9 53 7 82 -11 19 -11 45 -39 58 -62 26 -45 99
  -262 165 -492 48 -166 114 -364 130 -391 22 -36 7 43 -52 261 -81 297 -108
  432 -114 567 l-6 117 32 30 c21 20 50 34 86 41 30 6 57 15 60 19 11 19 -26
  108 -58 139 -31 30 -39 33 -83 30 l-48 -3 2 45 c5 83 -15 174 -61 281 -25 57
  -54 136 -66 174 -49 167 -82 916 -62 1390 22 541 34 623 118 790 43 85 66 160
  72 234 l6 65 47 12 c92 23 138 70 138 138 0 33 -19 46 -66 46 -73 0 -124 77
  -124 187 0 73 50 337 111 584 55 227 71 322 39 244z m-183 -1073 c12 -30 12
  -34 -11 -57 -14 -14 -36 -25 -49 -25 -48 0 -78 68 -47 105 9 11 26 15 53 13
  35 -3 42 -7 54 -36z m-14 -3193 c44 -24 49 -58 12 -94 -61 -62 -139 11 -89 83
  17 24 44 28 77 11z"/>
  <path d="M18615 7510 c-27 -10 -42 -29 -50 -62 -7 -26 -4 -29 41 -49 27 -11
  52 -26 56 -32 25 -39 -6 -125 -90 -249 -104 -156 -123 -199 -123 -284 0 -68
  25 -126 69 -165 51 -45 92 -59 175 -59 65 0 78 3 110 28 40 30 79 107 96 190
  7 33 9 107 5 200 -10 223 9 267 114 267 l57 0 3 38 c4 48 -16 73 -70 88 -33 8
  -43 7 -67 -11 -68 -48 -101 -201 -83 -377 5 -54 8 -101 5 -106 -2 -4 -17 2
  -33 13 -22 16 -34 18 -54 10 -31 -11 -35 -50 -11 -107 25 -58 20 -110 -14
  -143 -16 -16 -40 -32 -54 -36 -43 -10 -108 16 -134 55 -42 62 -25 122 48 174
  41 30 59 70 42 96 -8 12 -24 15 -57 14 -25 -2 -46 1 -46 5 0 5 38 62 85 127
  87 121 102 154 111 240 6 60 -8 90 -55 122 -37 25 -45 26 -76 13z"/>
  <path d="M519 7439 c-38 -14 -63 -75 -54 -129 10 -59 83 -201 149 -289 31 -41
  56 -78 56 -81 0 -4 -17 -7 -37 -6 -32 1 -38 -3 -47 -26 -9 -25 -6 -32 36 -72
  26 -25 49 -57 53 -74 14 -64 -53 -132 -129 -132 -30 0 -45 7 -73 35 -38 38
  -39 50 -17 163 11 55 -25 75 -87 48 -15 -6 -16 10 -15 156 1 135 -2 174 -18
  226 -27 87 -61 122 -118 122 -23 0 -48 -4 -55 -8 -22 -14 -32 -58 -22 -96 10
  -35 10 -35 52 -30 37 5 46 3 73 -23 40 -36 46 -77 48 -303 2 -167 4 -177 28
  -225 14 -27 34 -58 45 -67 51 -47 166 -63 237 -33 54 23 113 81 132 130 27 72
  -2 163 -94 295 -64 93 -112 190 -112 228 0 49 15 70 60 83 34 10 40 16 40 39
  0 58 -68 94 -131 69z"/>
  <path d="M18615 6839 c-22 -18 -26 -27 -21 -53 8 -40 30 -56 78 -56 27 0 40 5
  48 19 19 36 12 68 -19 90 -37 26 -52 26 -86 0z"/>
  <path d="M505 6785 c-14 -13 -25 -31 -25 -40 0 -9 11 -27 25 -40 41 -42 95
  -29 114 27 10 27 8 34 -11 55 -29 31 -72 30 -103 -2z"/>
  <path d="M18475 6591 c-44 -11 -71 -27 -94 -57 -31 -40 -28 -64 9 -64 17 0 39
  -9 51 -21 19 -19 21 -29 15 -85 -10 -102 -86 -341 -105 -330 -5 3 -10 52 -13
  108 -6 128 -29 189 -81 214 -40 19 -84 13 -89 -14 -7 -29 11 -64 63 -119 54
  -57 69 -87 69 -139 0 -40 -13 -43 -69 -15 -51 27 -64 45 -59 85 3 28 0 36 -17
  40 -107 29 -182 -68 -125 -162 28 -46 49 -51 74 -19 24 30 55 33 121 13 91
  -27 11 -92 -131 -106 -80 -8 -104 -20 -104 -55 0 -35 36 -60 85 -59 58 1 122
  40 186 114 48 55 79 75 79 50 0 -20 -139 -287 -165 -318 -31 -37 -70 -42 -115
  -15 -42 24 -60 6 -60 -61 0 -62 23 -104 81 -146 35 -25 51 -30 101 -30 66 0
  106 16 137 56 28 35 27 54 -2 54 -34 0 -57 30 -57 76 0 71 97 384 119 384 4 0
  7 -46 7 -102 -1 -113 16 -178 57 -216 40 -37 83 -33 102 10 16 38 11 50 -45
  108 -45 47 -70 97 -70 141 0 33 7 35 58 14 51 -22 82 -54 82 -85 0 -35 17 -50
  58 -50 66 0 130 103 96 155 -9 13 -27 31 -40 40 -24 16 -26 15 -49 -9 -15 -16
  -35 -26 -53 -26 -36 0 -132 28 -132 39 0 4 13 20 29 35 33 32 82 45 162 46 62
  0 89 18 89 61 0 37 -14 50 -57 56 -55 7 -106 -21 -193 -107 -66 -65 -90 -82
  -90 -62 0 18 133 299 155 328 31 40 74 52 109 29 34 -23 46 -12 46 40 0 100
  -57 165 -155 178 -22 3 -53 2 -70 -2z"/>
  <path d="M665 6553 c-11 -2 -30 -6 -42 -8 -78 -17 -150 -154 -110 -209 12 -17
  14 -17 44 0 29 17 32 17 57 0 36 -23 105 -132 167 -259 27 -56 49 -105 49
  -109 0 -19 -32 -6 -42 17 -16 35 -121 121 -173 140 -87 34 -155 -5 -124 -71
  16 -31 63 -47 115 -39 53 9 154 -37 154 -70 0 -29 -139 -60 -155 -35 -16 26
  -43 29 -70 8 -38 -29 -48 -62 -34 -109 17 -54 43 -79 84 -79 54 0 65 8 65 50
  0 23 7 43 18 52 20 18 106 68 115 68 4 0 7 -21 7 -48 0 -52 -11 -72 -77 -144
  -46 -51 -52 -71 -27 -106 23 -33 66 -29 98 8 35 43 47 94 47 210 1 69 4 100
  12 100 14 0 127 -296 134 -350 6 -44 -23 -85 -68 -94 l-31 -6 19 -32 c45 -77
  161 -98 242 -45 52 34 96 121 86 169 -11 52 -24 62 -49 39 -50 -45 -93 -28
  -157 65 -44 64 -140 255 -133 265 3 5 36 -18 72 -52 82 -75 141 -111 187 -112
  72 -2 119 54 78 94 -15 16 -37 21 -106 24 -90 4 -116 13 -154 48 -30 27 -29
  30 12 50 54 26 111 23 131 -8 15 -23 17 -24 46 -9 36 19 62 75 53 115 -8 36
  -56 76 -101 85 -44 8 -57 -4 -58 -53 -1 -34 -6 -41 -50 -70 -26 -18 -54 -33
  -61 -33 -42 0 -13 105 50 179 57 67 66 98 35 123 -26 21 -53 17 -88 -16 -47
  -42 -57 -74 -58 -191 -1 -134 -1 -130 -18 -115 -18 14 -103 267 -112 330 -7
  56 14 88 66 99 47 9 51 38 10 85 -40 45 -94 62 -155 49z"/>
  <path d="M17905 5388 c-81 -28 -126 -110 -166 -299 -44 -217 -89 -282 -167
  -245 -53 26 -70 21 -83 -24 -10 -33 -9 -43 5 -64 41 -63 113 -71 166 -18 42
  43 88 168 111 304 12 68 23 125 24 127 2 2 14 -9 27 -24 19 -21 29 -25 51 -20
  26 7 27 10 27 65 0 68 10 100 41 129 44 41 149 17 179 -40 16 -29 7 -105 -14
  -128 -10 -10 -37 -29 -61 -42 -66 -35 -70 -77 -9 -101 l35 -14 -99 -92 c-149
  -137 -221 -262 -192 -332 15 -36 55 -70 82 -70 24 0 78 52 78 75 0 9 -13 30
  -30 45 -24 22 -30 36 -30 69 0 50 47 111 191 251 108 105 141 161 141 240 0
  142 -169 256 -307 208z"/>
  <path d="M1159 5356 c-49 -17 -92 -49 -129 -96 -46 -58 -45 -121 5 -220 31
  -63 57 -94 162 -194 68 -66 131 -132 139 -147 28 -56 14 -108 -36 -134 -37
  -19 -38 -35 -4 -69 32 -31 67 -33 111 -6 97 59 19 228 -182 391 -36 29 -65 56
  -65 60 0 4 16 10 35 13 26 5 36 13 41 31 10 39 -1 52 -65 84 -71 36 -91 62
  -91 116 0 70 51 115 131 115 34 0 47 -6 76 -35 l36 -36 -7 -72 c-5 -58 -3 -77
  10 -95 22 -31 54 -25 79 15 26 42 38 37 47 -18 4 -24 14 -88 23 -143 17 -108
  38 -157 91 -215 41 -46 70 -55 125 -41 51 14 80 64 61 105 -16 35 -37 40 -82
  20 -57 -26 -85 -15 -116 47 -14 28 -35 94 -45 146 -53 265 -93 336 -210 377
  -50 18 -92 18 -140 1z"/>
  <path d="M17972 5278 c-19 -10 -22 -18 -20 -52 2 -33 9 -43 35 -59 27 -15 36
  -16 55 -6 30 16 38 28 38 61 0 17 -9 34 -26 47 -30 23 -48 25 -82 9z"/>
  <path d="M1172 5230 c-36 -22 -43 -60 -16 -98 13 -19 21 -22 52 -16 47 8 59
  18 67 56 5 23 2 35 -11 48 -30 29 -56 31 -92 10z"/>
  <path d="M17923 5094 c-11 -16 -53 -87 -93 -159 -163 -289 -308 -505 -386
  -574 -60 -53 -104 -55 -176 -11 -41 25 -53 29 -65 19 -27 -23 -44 -70 -45
  -122 0 -48 3 -54 38 -85 l38 -33 -37 -30 c-59 -48 -122 -146 -157 -244 -18
  -49 -46 -115 -64 -145 -17 -30 -34 -61 -37 -70 -9 -19 -159 -198 -313 -370
  -160 -179 -557 -576 -726 -726 -309 -274 -351 -303 -515 -359 -100 -34 -179
  -77 -228 -123 l-37 -36 -30 18 c-95 56 -135 60 -193 21 -20 -14 -37 -31 -37
  -37 0 -5 14 -26 30 -45 66 -75 26 -181 -105 -281 -100 -76 -300 -207 -445
  -292 -155 -91 -210 -128 -210 -141 0 -15 527 268 705 378 133 83 183 92 239
  43 18 -17 37 -41 40 -55 13 -51 105 -14 133 53 15 36 11 81 -11 133 -6 13 3
  20 36 34 71 28 132 81 183 157 89 134 139 188 305 332 268 232 402 360 635
  607 290 308 291 309 444 489 138 162 219 239 311 299 105 67 220 194 220 242
  0 30 18 31 75 3 49 -24 58 -25 85 -14 37 16 90 77 90 105 0 12 -16 31 -40 48
  -48 34 -64 80 -50 144 11 49 107 244 210 428 143 255 259 508 183 399z m-503
  -884 c28 -28 25 -64 -6 -89 -51 -40 -104 -14 -104 51 0 55 69 79 110 38z
  m-2282 -2286 c45 -31 18 -114 -38 -114 -26 0 -60 38 -60 67 0 54 52 80 98 47z"/>
  <path d="M1320 4954 c127 -240 255 -471 303 -549 66 -105 97 -173 97 -212 0
  -38 -37 -85 -80 -103 -36 -15 -39 -40 -10 -88 28 -45 82 -67 135 -54 22 5 47
  12 56 16 13 6 20 -3 34 -36 27 -69 84 -135 160 -185 135 -90 188 -139 327
  -301 222 -259 349 -392 599 -627 313 -295 321 -302 499 -454 162 -138 239
  -219 299 -311 67 -105 194 -220 242 -220 30 0 31 -18 3 -75 -24 -49 -25 -58
  -14 -85 16 -38 77 -90 105 -90 12 1 33 18 52 44 36 49 73 61 142 45 48 -11
  227 -99 416 -204 157 -88 410 -215 427 -215 25 0 -19 30 -182 123 -309 177
  -495 301 -568 381 -54 59 -57 104 -12 178 25 41 29 53 19 65 -23 27 -70 44
  -122 45 -48 0 -54 -3 -85 -38 l-33 -38 -30 37 c-46 56 -145 121 -227 151 -65
  23 -109 43 -219 100 -41 21 -303 246 -508 436 -191 176 -446 436 -605 615
  -270 304 -299 345 -355 510 -34 98 -77 178 -123 227 l-35 37 31 59 c18 33 32
  75 32 94 0 34 -42 108 -62 108 -5 0 -26 -13 -45 -30 -27 -24 -43 -30 -81 -30
  -113 1 -206 108 -482 562 -74 122 -141 224 -149 226 -8 3 14 -49 49 -114z
  m602 -811 c40 -36 9 -103 -47 -103 -26 0 -39 6 -51 25 -39 60 44 127 98 78z
  m2292 -2269 c37 -37 4 -114 -48 -114 -29 0 -66 43 -66 76 0 45 80 72 114 38z"/>
  <path d="M14422 1744 c-26 -18 -27 -32 -6 -78 27 -56 14 -83 -59 -116 -35 -16
  -92 -34 -128 -40 -257 -46 -348 -98 -389 -224 -26 -81 12 -183 94 -251 37 -30
  52 -36 98 -37 45 -1 66 5 133 40 68 35 97 60 190 158 120 128 154 154 203 154
  31 0 47 -11 90 -64 17 -22 25 -20 56 10 31 32 33 67 6 111 -59 97 -228 19
  -391 -182 -29 -36 -56 -65 -60 -65 -4 0 -10 16 -13 35 -5 26 -13 36 -31 41
  -39 10 -52 -1 -84 -65 -36 -71 -62 -91 -116 -91 -70 0 -115 51 -115 131 0 34
  6 47 35 76 l36 36 74 -7 c67 -6 76 -5 95 14 11 11 20 25 20 30 0 13 -41 55
  -60 62 -27 9 1 26 53 33 213 27 276 47 346 111 63 56 63 147 0 179 -36 19 -49
  19 -77 -1z"/>
  <path d="M4734 1686 c-19 -19 -34 -44 -34 -55 0 -34 26 -87 51 -105 53 -37
  174 -77 291 -97 68 -12 125 -23 127 -24 2 -2 -9 -14 -24 -27 -21 -19 -25 -29
  -20 -51 7 -26 10 -27 67 -27 101 0 148 -36 148 -113 0 -38 -30 -91 -61 -107
  -32 -18 -106 -6 -133 19 -13 12 -31 39 -41 61 -28 61 -74 63 -97 4 l-14 -35
  -92 99 c-137 149 -262 221 -332 192 -36 -15 -70 -55 -70 -82 0 -24 52 -78 75
  -78 9 0 30 14 45 30 22 24 36 30 68 30 35 0 52 -9 114 -59 40 -33 100 -90 134
  -128 106 -118 193 -161 287 -141 120 25 205 180 166 299 -29 85 -108 130 -300
  170 -217 44 -282 89 -245 167 24 50 20 69 -15 81 -48 17 -58 14 -95 -23z"/>
  <path d="M13978 1263 c-27 -31 -29 -56 -8 -91 22 -36 60 -43 98 -16 19 13 22
  21 16 52 -8 45 -21 60 -59 68 -22 4 -35 1 -47 -13z"/>
  <path d="M5183 1238 c-27 -35 -34 -58 -22 -80 16 -30 28 -38 61 -38 17 0 34 9
  47 26 24 31 26 43 9 79 -9 20 -18 25 -48 25 -21 0 -42 -6 -47 -12z"/>
  <path d="M13336 1221 c-12 -13 -18 -42 -21 -105 -4 -89 -13 -115 -48 -153 -27
  -30 -30 -29 -50 12 -26 54 -23 111 8 131 23 15 24 17 9 46 -19 36 -75 62 -115
  53 -36 -8 -76 -56 -85 -101 -8 -44 4 -57 53 -58 34 -1 41 -6 70 -50 18 -26 33
  -54 33 -61 0 -44 -105 -13 -185 55 -65 55 -97 62 -120 26 -18 -27 -12 -50 24
  -89 39 -42 116 -61 217 -53 82 7 107 0 80 -23 -21 -18 -273 -100 -327 -107
  -42 -6 -50 -3 -73 19 -14 15 -26 37 -26 51 0 55 -64 39 -114 -28 -28 -37 -28
  -138 0 -186 44 -76 150 -123 197 -88 18 13 18 15 0 45 -17 31 -17 33 3 60 11
  15 41 41 65 58 47 32 285 155 300 155 19 0 8 -31 -16 -42 -35 -16 -121 -121
  -140 -173 -34 -87 5 -155 71 -124 31 16 47 63 39 115 -9 53 37 154 70 154 29
  0 60 -139 35 -155 -26 -16 -29 -43 -8 -70 29 -38 62 -48 109 -34 54 17 79 43
  79 84 0 54 -8 65 -50 65 -23 0 -43 7 -52 18 -18 20 -68 106 -68 115 0 4 21 7
  48 7 52 0 72 -11 144 -77 51 -46 71 -52 106 -27 33 23 29 66 -8 98 -43 35 -94
  47 -210 47 -69 1 -100 4 -100 12 0 13 296 126 350 134 41 6 87 -24 92 -60 2
  -16 10 -22 28 -22 36 0 81 70 88 134 6 65 -29 129 -91 165 -60 35 -88 40 -132
  22 l-38 -16 20 -23 c48 -51 31 -93 -63 -158 -70 -48 -258 -141 -262 -129 -2 5
  22 38 53 73 108 119 135 201 85 255 -25 27 -51 28 -74 3z"/>
  <path d="M5824 1189 c-24 -27 -24 -91 1 -139 10 -19 49 -65 86 -101 65 -62 82
  -89 59 -89 -21 0 -278 132 -313 161 -42 35 -48 72 -20 119 24 42 6 60 -61 60
  -62 0 -104 -23 -146 -81 -25 -35 -30 -51 -30 -101 0 -66 16 -106 56 -137 35
  -28 54 -27 54 2 0 34 30 57 76 57 71 0 384 -97 384 -119 0 -4 -46 -7 -102 -7
  -114 1 -178 -16 -218 -59 -27 -29 -29 -73 -4 -92 34 -25 68 -15 117 32 51 49
  103 75 148 75 33 0 35 -7 14 -58 -22 -51 -54 -82 -85 -82 -35 0 -50 -17 -50
  -58 0 -66 103 -130 155 -96 13 9 31 27 40 40 16 24 15 26 -9 49 -16 15 -26 35
  -26 53 0 36 28 132 39 132 4 0 20 -13 35 -29 32 -33 45 -82 46 -162 0 -62 18
  -89 61 -89 37 0 50 14 56 57 7 55 -23 109 -108 194 -64 65 -81 89 -61 89 18 0
  299 -133 328 -155 40 -31 52 -74 29 -109 -23 -34 -12 -46 40 -46 110 0 179 70
  178 181 -1 63 -20 107 -59 138 -40 31 -64 28 -64 -9 0 -42 -31 -70 -79 -70
  -73 0 -350 83 -354 105 -1 6 45 13 103 16 130 7 192 31 216 82 10 22 14 45 10
  61 -5 22 -12 26 -41 26 -29 0 -46 -10 -95 -55 -66 -61 -94 -75 -146 -75 -40 0
  -43 13 -15 69 27 51 45 64 85 59 28 -3 36 0 40 17 29 107 -68 182 -162 125
  -46 -28 -51 -49 -19 -74 30 -24 33 -55 13 -121 -27 -91 -91 -16 -105 125 -5
  44 -14 87 -21 95 -18 21 -54 19 -76 -6z"/>
  <path d="M12365 756 c-61 -15 -91 -31 -208 -108 -182 -120 -261 -130 -288 -38
  -10 33 -16 40 -38 40 -38 0 -69 -26 -76 -63 -14 -74 45 -132 125 -123 60 8
  207 81 299 150 41 31 78 56 81 56 4 0 7 -17 6 -37 -1 -32 3 -39 26 -47 24 -8
  31 -5 72 37 54 53 91 65 136 42 71 -37 93 -134 41 -185 -38 -38 -72 -45 -138
  -30 -39 10 -60 11 -71 3 -18 -11 -21 -54 -8 -85 8 -17 -1 -18 -127 -11 -184 8
  -321 -21 -361 -78 -16 -24 -22 -95 -8 -116 14 -22 58 -32 96 -22 35 10 35 11
  30 52 -4 34 -1 47 18 70 33 40 85 49 298 51 177 2 187 3 235 28 28 14 58 34
  67 45 47 51 63 166 33 236 -21 52 -73 107 -120 128 -46 21 -53 22 -120 5z"/>
  <path d="M6735 732 c-82 -39 -125 -116 -125 -227 0 -63 3 -76 28 -108 29 -39
  109 -79 194 -97 28 -6 108 -7 195 -4 224 10 268 -9 268 -114 l0 -57 38 -3 c48
  -4 73 16 88 70 8 33 7 43 -11 67 -47 68 -197 101 -375 83 -55 -5 -103 -8 -108
  -5 -4 2 2 17 13 33 16 22 18 34 10 54 -11 31 -50 35 -107 11 -58 -25 -110 -20
  -143 13 -56 57 -45 151 22 192 62 38 120 21 171 -51 30 -41 70 -59 96 -42 12
  8 15 24 14 57 -2 25 1 46 5 46 5 0 62 -38 127 -85 121 -87 154 -102 240 -111
  60 -6 90 8 123 56 35 53 13 110 -50 125 -26 7 -29 3 -49 -41 -11 -27 -26 -52
  -32 -56 -40 -26 -124 6 -264 100 -136 91 -167 105 -253 109 -59 3 -84 0 -115
  -15z"/>
  <path d="M12412 607 c-12 -13 -22 -36 -22 -51 0 -30 39 -76 65 -76 9 0 27 11
  40 25 39 38 32 86 -16 110 -37 20 -42 19 -67 -8z"/>
  <path d="M6770 603 c-25 -9 -40 -35 -40 -69 0 -66 71 -89 109 -35 26 37 26 52
  0 85 -20 25 -38 30 -69 19z"/>
  <path d="M7963 519 c-7 -7 -13 -32 -13 -54 0 -68 -59 -113 -159 -122 -78 -7
  -312 35 -612 108 -227 55 -322 71 -244 39 60 -24 563 -172 685 -201 222 -54
  256 -75 254 -157 -1 -26 -5 -59 -9 -75 -7 -25 -4 -28 31 -43 72 -30 138 -4
  174 70 l21 45 50 -19 c80 -32 144 -35 260 -12 158 31 218 33 408 17 452 -39
  801 -38 1416 3 317 21 488 20 571 -2 79 -21 234 -21 289 0 76 29 72 30 89 -30
  13 -43 23 -59 46 -71 40 -21 113 -19 138 2 19 16 20 23 12 67 -19 94 33 138
  240 206 69 22 188 59 265 81 183 52 374 115 427 139 l43 20 -35 -3 c-19 -2
  -129 -29 -245 -60 -297 -81 -432 -108 -567 -114 l-117 -6 -30 32 c-20 21 -34
  50 -41 86 -6 30 -15 57 -19 60 -20 12 -109 -26 -140 -60 -28 -31 -32 -41 -29
  -82 l3 -47 -45 2 c-82 5 -176 -15 -267 -56 -210 -95 -344 -113 -953 -134 -367
  -12 -731 -3 -1067 27 -169 15 -218 28 -353 95 -79 40 -184 70 -241 70 -31 0
  -51 5 -54 13 -2 6 -9 31 -15 55 -15 60 -64 110 -115 118 -26 3 -44 1 -52 -7z
  m3332 -214 c62 -61 -11 -139 -83 -89 -24 17 -28 44 -11 77 24 44 58 49 94 12z
  m-3215 -25 c24 -44 -4 -93 -55 -92 -38 0 -55 20 -55 64 0 34 4 41 32 53 36 15
  61 7 78 -25z"/>
  </g>
</svg>
